<svg width="452" height="116" viewBox="0 0 452 116" fill="none" xmlns="http://www.w3.org/2000/svg">
<path d="M115.18 57.59C115.18 56.28 115.12 54.99 115.04 53.71C113.68 74.11 101.7 91.59 84.59 100.69L78.76 111.14C100.09 102.7 115.18 81.91 115.18 57.58V57.59Z" fill="#FF8FA2"/>
<path d="M0.14 53.71C0.05 54.99 0 56.29 0 57.59C0 80.56 13.46 100.39 32.91 109.63L36.39 103.38C16.23 95.39 1.65 76.34 0.14 53.71Z" fill="#C4D0FB"/>
<path d="M57.59 107.41C50.1 107.41 42.96 105.97 36.4 103.38L32.92 109.63C40.4 113.18 48.76 115.18 57.6 115.18C65.08 115.18 72.22 113.74 78.77 111.15L84.6 100.7C76.55 104.99 67.36 107.42 57.6 107.42L57.59 107.41Z" fill="#9087E5"/>
<path d="M57.59 0C27.09 0 2.14001 23.71 0.140015 53.71C1.65001 76.34 16.23 95.39 36.39 103.38C42.95 105.98 50.1 107.41 57.58 107.41C67.34 107.41 76.52 104.97 84.58 100.69C101.69 91.58 113.67 74.1 115.03 53.71C113.04 23.71 88.09 0 57.59 0Z" fill="white"/>
<path d="M92.42 43.46C92.46 43.15 92.5 42.84 92.5 42.51C92.5 38.88 89.57 35.95 85.94 35.95C84.99 35.95 84.08 36.16 83.27 36.52C82.37 30.58 77.24 26.03 71.05 26.03C68.9 26.03 66.88 26.58 65.11 27.55C63.87 24.86 61.87 22.59 59.39 21.01C59.48 21.07 59.57 21.12 59.65 21.18C58.38 20.84 55.96 19.53 54.59 19.51C46.48 19.37 41.98 24.5 41.11 31.31C40.13 31.05 39.1 30.9 38.04 30.9C31.54 30.9 26.27 36.17 26.27 42.67C26.27 43.74 26.41 44.77 26.68 45.75C23.62 47.44 22.71 51.09 23.05 53.66C23.75 59.02 29.62 61.55 31.82 62.33C32.38 62.43 30.47 62.33 31.05 62.33H88.2C93.68 62.33 98.12 57.89 98.12 52.41C98.11 48.46 95.78 45.04 92.41 43.45L92.42 43.46Z" fill="#FF8FA2"/>
<path d="M93.84 42.69V42.52C93.84 38.16 90.29 34.62 85.94 34.62C85.38 34.62 84.81 34.68 84.27 34.8C82.67 28.94 77.24 24.7 71.05 24.7C69.21 24.7 67.39 25.07 65.71 25.78C62.78 20.59 57.23 17.3 51.21 17.3C44.34 17.3 38.27 21.45 35.76 27.74C35.03 27.62 34.29 27.55 33.55 27.55C26.32 27.55 20.44 33.43 20.44 40.66C20.44 41.48 20.52 42.31 20.67 43.11C17.6 45.2 15.73 48.68 15.73 52.43C15.73 58.64 20.78 63.69 26.99 63.69H88.19C94.4 63.69 99.45 58.64 99.45 52.43C99.45 48.41 97.28 44.67 93.84 42.68V42.69ZM88.2 61.01H27C22.27 61.01 18.42 57.16 18.42 52.43C18.42 49.82 19.62 47.37 21.62 45.76C21.83 46.14 22.06 46.5 22.32 46.84C23.15 47.91 24.21 48.8 25.5 49.23C25.26 48.6 25 48.03 24.78 47.46C24.55 46.9 24.35 46.35 24.17 45.81C24.01 45.34 23.87 44.88 23.74 44.41H23.78L23.5 43.38C23.44 43.18 23.4 42.98 23.36 42.78C23.36 42.74 23.34 42.69 23.33 42.65C23.2 41.99 23.13 41.32 23.13 40.64C23.13 34.89 27.81 30.21 33.56 30.21C34.04 30.21 34.52 30.25 35 30.31C34.97 30.43 34.94 30.55 34.91 30.67C34.82 31.2 34.73 31.75 34.66 32.28L34.57 33.91C34.57 36.08 35.03 38.26 35.9 40.25C36.78 42.24 38.06 44.03 39.65 45.47C41.24 46.91 43.11 48.01 45.11 48.65C47.1 49.29 49.21 49.5 51.21 49.21C47.21 48.65 43.63 46.77 41.14 43.98C38.63 41.2 37.25 37.57 37.26 33.91C37.26 32.74 37.4 31.57 37.67 30.43L37.92 29.7C39.76 23.88 45.11 19.98 51.22 19.98C56.65 19.98 61.63 23.17 63.9 28.11L64.51 29.42L65.78 28.73C67.39 27.85 69.22 27.38 71.07 27.38C76.47 27.38 81.15 31.4 81.96 36.73L82 37.02C82.05 37.48 82.08 37.93 82.08 38.39C82.08 41.28 81.02 44.15 79.06 46.38C77.11 48.62 74.3 50.18 71.07 50.75C72.69 51.04 74.41 50.91 76.05 50.42C77.69 49.92 79.24 49.05 80.55 47.88C81.86 46.71 82.93 45.24 83.66 43.61C83.82 43.2 83.99 42.78 84.14 42.36C84.25 41.93 84.39 41.5 84.49 41.06C84.56 40.62 84.64 40.18 84.7 39.74L84.77 38.4C84.77 38.09 84.75 37.77 84.73 37.46C85.13 37.36 85.54 37.3 85.96 37.3C88.57 37.3 90.74 39.24 91.11 41.75C90.28 41.62 89.39 41.68 88.6 41.96C87.63 42.31 86.78 42.94 86.32 43.86C87.35 43.92 88.15 43.94 88.9 44.05C89.64 44.14 90.3 44.29 90.99 44.46C91.34 44.55 91.69 44.65 92.05 44.76C94.94 46.21 96.81 49.19 96.81 52.43C96.81 57.15 92.96 60.99 88.24 60.99L88.2 61.01Z" fill="#6A5AE0"/>
<path d="M58.18 54.52C60.37 53.42 62 51.79 62.94 49.88C63.88 47.97 64.11 45.83 63.64 43.85C63.16 41.86 62 40.06 60.31 38.79C58.61 37.51 56.42 36.78 53.97 36.78C55.07 36.22 56.34 35.96 57.63 36C58.92 36.04 60.23 36.38 61.41 36.99C62.6 37.6 63.66 38.49 64.49 39.56C64.69 39.84 64.89 40.12 65.07 40.4C65.23 40.7 65.41 40.99 65.56 41.3C65.7 41.61 65.83 41.93 65.95 42.25L66.24 43.23C66.55 44.56 66.58 45.96 66.32 47.3C66.06 48.64 65.51 49.91 64.72 50.98C63.94 52.06 62.93 52.95 61.79 53.57C60.65 54.19 59.4 54.54 58.17 54.53L58.18 54.52Z" fill="#6A5AE0"/>
<path d="M38.73 82.69C45.96 82.69 51.81 76.83 51.81 69.61C51.81 62.39 45.95 56.53 38.73 56.53C31.51 56.53 25.65 62.39 25.65 69.61C25.65 76.83 31.51 82.69 38.73 82.69Z" fill="white"/>
<path d="M76.47 82.69C83.7 82.69 89.55 76.83 89.55 69.61C89.55 62.39 83.69 56.53 76.47 56.53C69.25 56.53 63.39 62.39 63.39 69.61C63.39 76.83 69.25 82.69 76.47 82.69Z" fill="white"/>
<path d="M95.1799 61.81H91.1399C88.3499 56.56 82.8199 52.98 76.4499 52.98C70.8199 52.98 65.8599 55.78 62.8499 60.05C61.1499 59.42 59.3799 59.09 57.5899 59.09C55.7999 59.09 54.0299 59.41 52.3299 60.05C49.3199 55.78 44.3499 52.98 38.7299 52.98C32.3599 52.98 26.8399 56.56 24.0399 61.81H19.9999C18.8699 61.81 17.9399 62.73 17.9399 63.87C17.9399 65.07 18.9099 66.04 20.1099 66.04H22.4799C22.2299 67.19 22.0899 68.38 22.0899 69.62C22.0899 78.8 29.5299 86.24 38.7099 86.24C47.8899 86.24 55.3299 78.8 55.3299 69.62C55.3299 67.59 54.9699 65.65 54.2999 63.85C56.4499 63.17 58.6999 63.17 60.8499 63.85C60.1899 65.64 59.8199 67.59 59.8199 69.62C59.8199 78.8 67.2599 86.24 76.4399 86.24C85.6199 86.24 93.0599 78.8 93.0599 69.62C93.0599 68.39 92.9199 67.2 92.6699 66.04H95.0399C96.2399 66.04 97.2099 65.07 97.2099 63.87C97.2499 62.73 96.3299 61.81 95.1899 61.81H95.1799ZM38.7299 81.24C32.3099 81.24 27.0899 76.03 27.0899 69.6C27.0899 63.17 32.2999 57.96 38.7299 57.96C45.1599 57.96 50.3699 63.17 50.3699 69.6C50.3699 76.03 45.1599 81.24 38.7299 81.24ZM76.4699 81.24C70.0499 81.24 64.8299 76.03 64.8299 69.6C64.8299 63.17 70.0399 57.96 76.4699 57.96C82.8999 57.96 88.1099 63.17 88.1099 69.6C88.1099 76.03 82.8999 81.24 76.4699 81.24Z" fill="#6A5AE0"/>
<path d="M64.32 83.94C64.32 83.94 64.32 83.97 64.31 83.98L64.06 84.59C63.68 85.37 63.24 86.11 62.71 86.76C62.17 87.39 61.59 88 60.96 88.46C60.66 88.72 60.32 88.9 60.01 89.12C59.69 89.32 59.36 89.48 59.05 89.65C58.72 89.79 58.42 89.94 58.1 90.06C57.79 90.17 57.49 90.28 57.2 90.36C56.92 90.44 56.64 90.5 56.38 90.57C56.12 90.62 55.89 90.66 55.67 90.7C55.24 90.79 54.86 90.79 54.62 90.82C54.37 90.85 54.24 90.86 54.24 90.86C54.24 90.86 54.36 90.9 54.6 91C54.71 91.04 54.86 91.09 55.03 91.15C55.12 91.18 55.2 91.21 55.3 91.24C55.4 91.26 55.51 91.28 55.63 91.3C55.86 91.34 56.12 91.4 56.41 91.45C56.69 91.49 57 91.5 57.34 91.53C57.67 91.55 58.03 91.52 58.41 91.5C58.79 91.48 59.18 91.39 59.6 91.33C60.01 91.23 60.43 91.12 60.87 90.97C61.3 90.8 61.75 90.64 62.17 90.4C63.06 89.97 63.9 89.34 64.7 88.59C64.89 88.39 65.08 88.2 65.28 88C65.47 87.79 65.63 87.57 65.81 87.34L66.07 87.01L66.3 86.65C66.45 86.41 66.61 86.17 66.74 85.91C66.79 85.8 66.85 85.69 66.9 85.58L64.33 83.94H64.32Z" fill="#6A5AE0"/>
<path d="M37.6199 76.35C36.7599 76.16 35.9999 75.86 35.3799 75.29C34.6499 74.63 34.3199 73.79 34.3399 72.82C34.3499 72.26 34.8099 71.81 35.3699 71.78C35.9499 71.75 36.4499 72.14 36.5199 72.68C36.6599 73.61 36.9299 73.93 37.8599 74.15C38.6199 74.34 39.3599 74.3 40.0699 73.99C41.0599 73.55 41.2599 72.29 40.4099 71.6C40.0199 71.29 39.5299 71.09 39.0599 70.89C38.2199 70.54 37.3299 70.3 36.5199 69.89C34.7999 69.03 33.9599 67.12 34.4799 65.35C34.8499 64.1 35.7899 63.42 36.9699 63.02C37.1799 62.95 37.3799 62.91 37.6299 62.84C37.6299 62.54 37.6299 62.23 37.6299 61.93C37.6299 61.3 38.1199 60.82 38.7299 60.83C39.3399 60.83 39.7999 61.3 39.8099 61.92C39.8099 62.23 39.8099 62.53 39.8099 62.73C40.5099 63.06 41.1799 63.31 41.7499 63.69C42.6799 64.3 43.1099 65.23 43.0899 66.35C43.0899 66.9 42.6499 67.36 42.1099 67.4C41.5199 67.44 40.9399 67.07 40.9199 66.52C40.8799 65.57 40.2799 65.22 39.4999 65.04C38.7399 64.87 37.9999 64.91 37.2999 65.26C36.3999 65.7 36.1999 66.93 36.9899 67.57C37.4399 67.93 38.0199 68.15 38.5499 68.37C39.3399 68.71 40.1899 68.94 40.9599 69.33C42.6799 70.21 43.4799 72.11 42.9699 73.86C42.6099 75.09 41.6899 75.75 40.5399 76.17C40.2999 76.26 39.9799 76.28 39.8499 76.45C39.7299 76.61 39.8099 76.93 39.8099 77.18C39.8099 77.89 39.3999 78.36 38.7699 78.38C38.1199 78.4 37.6299 77.95 37.6199 77.3V76.33V76.35Z" fill="#6A5AE0"/>
<path d="M75.3699 76.35C74.5099 76.16 73.7499 75.86 73.1299 75.29C72.3999 74.63 72.0699 73.79 72.0899 72.82C72.0999 72.26 72.5599 71.81 73.1199 71.78C73.6999 71.75 74.1999 72.14 74.2699 72.68C74.4099 73.61 74.6799 73.93 75.6099 74.15C76.3699 74.34 77.1099 74.3 77.8199 73.99C78.8099 73.55 79.0099 72.29 78.1599 71.6C77.7699 71.29 77.2799 71.09 76.8099 70.89C75.9699 70.54 75.0799 70.3 74.2699 69.89C72.5499 69.03 71.7099 67.12 72.2299 65.35C72.5999 64.1 73.5399 63.42 74.7199 63.02C74.9299 62.95 75.1299 62.91 75.3799 62.84C75.3799 62.54 75.3799 62.23 75.3799 61.93C75.3799 61.3 75.8699 60.82 76.4799 60.83C77.0899 60.83 77.5499 61.3 77.5599 61.92C77.5599 62.23 77.5599 62.53 77.5599 62.73C78.2599 63.06 78.9299 63.31 79.4999 63.69C80.4299 64.3 80.8599 65.23 80.8399 66.35C80.8399 66.9 80.3999 67.36 79.8599 67.4C79.2699 67.44 78.6899 67.07 78.6699 66.52C78.6299 65.57 78.0299 65.22 77.2499 65.04C76.4899 64.87 75.7499 64.91 75.0499 65.26C74.1499 65.7 73.9499 66.93 74.7399 67.57C75.1899 67.93 75.7699 68.15 76.2999 68.37C77.0899 68.71 77.9399 68.94 78.7099 69.33C80.4299 70.21 81.2299 72.11 80.7199 73.86C80.3599 75.09 79.4399 75.75 78.2899 76.17C78.0499 76.26 77.7299 76.28 77.5999 76.45C77.4799 76.61 77.5599 76.93 77.5599 77.18C77.5599 77.89 77.1499 78.36 76.5199 78.38C75.8699 78.4 75.3799 77.95 75.3699 77.3C75.3699 76.97 75.3699 76.66 75.3699 76.33V76.35Z" fill="#6A5AE0"/>
<path d="M156.35 69.0699H135.99C135.31 69.0699 134.84 68.9299 134.53 68.6199C134.21 68.3199 134.07 67.8299 134.07 67.1499V32.7799C134.07 32.0999 134.21 31.6299 134.52 31.3199C134.82 31.0199 135.31 30.8699 135.98 30.8699H152.9C156.36 30.8699 158.92 31.5299 160.6 32.8599C162.28 34.1899 163.09 36.2299 163.09 38.9799V41.5299C163.09 43.0099 162.83 44.2199 162.33 45.1599C161.81 46.0999 161.03 46.7899 159.97 47.2499C162.23 47.4699 163.92 48.2399 165.01 49.5799C166.11 50.9199 166.65 52.8799 166.65 55.4699V60.3599C166.65 63.3299 165.81 65.5199 164.13 66.9299C162.46 68.3399 159.86 69.0499 156.36 69.0499L156.35 69.0699ZM146.01 39.8899V45.6299H150.52C151.2 45.6299 151.7 45.4599 152.03 45.0999C152.36 44.7499 152.53 44.2199 152.53 43.5099V42.0299C152.53 41.3199 152.36 40.7899 152.03 40.4399C151.7 40.0799 151.19 39.9099 150.52 39.9099H146.01V39.8899ZM146.01 53.7899V60.0399H152.91C153.59 60.0399 154.09 59.8699 154.42 59.5099C154.75 59.1599 154.92 58.6299 154.92 57.9199V55.8399C154.92 55.1299 154.75 54.6199 154.42 54.2699C154.09 53.9399 153.58 53.7699 152.91 53.7699H146.01V53.7899Z" fill="white"/>
<path d="M184.21 69.07C183.53 69.07 183.06 68.93 182.75 68.62C182.45 68.32 182.3 67.83 182.3 67.16V60.8499C182.3 60.1699 182.44 59.7 182.75 59.3899C183.05 59.09 183.54 58.9399 184.21 58.9399H189.46V41.11H184.21C183.53 41.11 183.06 40.9699 182.75 40.66C182.45 40.36 182.3 39.87 182.3 39.2V32.79C182.3 32.11 182.44 31.64 182.75 31.33C183.05 31.03 183.54 30.8799 184.21 30.8799H206.81C207.49 30.8799 207.96 31.04 208.27 31.33C208.57 31.63 208.72 32.12 208.72 32.79V39.2C208.72 39.88 208.56 40.35 208.27 40.66C207.97 40.9599 207.48 41.11 206.81 41.11H201.67V58.9399H206.81C207.49 58.9399 207.96 59.0799 208.27 59.3899C208.57 59.6899 208.72 60.18 208.72 60.8499V67.16C208.72 67.84 208.56 68.31 208.27 68.62C207.97 68.92 207.48 69.07 206.81 69.07H184.21ZM199.74 28.75H191.35C190.67 28.75 190.2 28.61 189.89 28.2999C189.59 27.9999 189.44 27.51 189.44 26.84V20.11C189.44 19.43 189.58 18.96 189.89 18.65C190.19 18.35 190.68 18.2 191.35 18.2H199.74C200.42 18.2 200.89 18.34 201.2 18.65C201.5 18.95 201.65 19.44 201.65 20.11V26.84C201.65 27.52 201.51 27.9899 201.2 28.2999C200.91 28.5999 200.42 28.75 199.74 28.75Z" fill="white"/>
<path d="M254.75 69.0699H227.76C227.08 69.0699 226.61 68.93 226.3 68.6199C226 68.32 225.85 67.8299 225.85 67.16V32.7899C225.85 32.1099 225.99 31.6399 226.3 31.3299C226.61 31.0199 227.09 30.8799 227.76 30.8799H235.99C236.67 30.8799 237.14 31.0399 237.45 31.3299C237.75 31.6299 237.9 32.1199 237.9 32.7899V59.0499H245.16V50.4599C245.16 49.7799 245.3 49.3099 245.61 48.9999C245.91 48.6999 246.4 48.5499 247.07 48.5499H254.77C255.45 48.5499 255.92 48.7099 256.23 48.9999C256.53 49.2999 256.68 49.7899 256.68 50.4599V67.1799C256.68 67.8599 256.52 68.3299 256.23 68.6399C255.94 68.9099 255.45 69.0699 254.77 69.0699H254.75Z" fill="white"/>
<path d="M283.93 69.0699H275.7C275.02 69.0699 274.55 68.93 274.24 68.6199C273.94 68.32 273.79 67.8299 273.79 67.16V32.7899C273.79 32.1099 273.93 31.6399 274.24 31.3299C274.55 31.0199 275.03 30.8799 275.7 30.8799H291.93C296.74 30.8799 300.03 31.8299 301.8 33.7499C303.57 35.6699 304.45 38.1599 304.45 41.2299V48.0199C304.45 51.0999 303.57 53.5799 301.8 55.4999C300.03 57.4199 296.74 58.3699 291.93 58.3699H285.83V67.1799C285.83 67.8599 285.67 68.3299 285.38 68.6399C285.08 68.9099 284.59 69.0699 283.92 69.0699H283.93ZM285.73 40.7899V48.7999H290.5C291.52 48.7999 292.2 48.5399 292.52 48.0099C292.84 47.4799 293 46.8899 293 46.2099V43.3999C293 42.7199 292.84 42.1299 292.52 41.5999C292.2 41.0699 291.53 40.8099 290.5 40.8099H285.73V40.7899Z" fill="white"/>
<path d="M330.87 67.15C330.87 67.83 330.73 68.3 330.42 68.61C330.12 68.91 329.63 69.06 328.96 69.06H321.16C320.48 69.06 320.01 68.92 319.7 68.61C319.4 68.31 319.25 67.82 319.25 67.15V53.14C319.25 52.07 319.42 50.86 319.75 49.48C320.08 48.1 320.6 46.5 321.32 44.65L325.93 32.6C326.15 31.99 326.46 31.56 326.91 31.27C327.36 30.98 327.93 30.85 328.64 30.85H342.91C343.59 30.85 344.13 30.99 344.58 31.27C345.03 31.56 345.34 31.99 345.56 32.6L350.17 44.65C350.88 46.49 351.39 48.09 351.74 49.48C352.07 50.86 352.24 52.07 352.24 53.14V67.15C352.24 67.83 352.1 68.3 351.79 68.61C351.49 68.91 351 69.06 350.33 69.06H342.32C341.61 69.06 341.1 68.92 340.75 68.61C340.42 68.31 340.25 67.82 340.25 67.15V59.73H330.85V67.15H330.84H330.87ZM333.9 42L331.41 50.07H339.74L337.25 42C337.11 41.68 336.96 41.45 336.8 41.31C336.64 41.17 336.45 41.09 336.24 41.09H334.91C334.69 41.09 334.51 41.16 334.35 41.31C334.19 41.45 334.05 41.68 333.9 42Z" fill="white"/>
<path d="M379.46 69.0699H371.29C370.61 69.0699 370.14 68.93 369.83 68.6199C369.53 68.32 369.38 67.8299 369.38 67.16V32.7899C369.38 32.1099 369.52 31.6399 369.83 31.3299C370.13 31.0299 370.62 30.8799 371.29 30.8799H388.96C392.92 30.8799 395.65 31.6999 397.16 33.3399C398.66 34.9799 399.41 37.1199 399.41 39.7399V42.1799C399.41 43.6599 399.19 44.9299 398.75 45.9699C398.31 47.0099 397.54 47.7699 396.44 48.2199C398.36 48.4399 399.9 49.2099 401.08 50.5499C402.26 51.8899 402.85 53.6799 402.85 55.9099V67.1499C402.85 67.8299 402.71 68.2999 402.4 68.6099C402.1 68.9099 401.61 69.0599 400.94 69.0599H392.71C392.03 69.0599 391.56 68.9199 391.25 68.6099C390.94 68.2999 390.8 67.8199 390.8 67.1499V59.0399C390.8 58.2599 390.64 57.6899 390.35 57.3099C390.05 56.9399 389.53 56.7499 388.78 56.7499H381.36V67.1399C381.36 67.8199 381.22 68.2899 380.91 68.5999C380.6 68.9099 380.12 69.0599 379.44 69.0599L379.46 69.0699ZM381.38 40.4199V47.2099H385.36C386.28 47.2099 386.9 46.9699 387.22 46.4899C387.54 46.0099 387.7 45.4199 387.7 44.7199V42.9199C387.7 42.2099 387.54 41.6199 387.22 41.1499C386.9 40.6799 386.28 40.4299 385.36 40.4299H381.38V40.4199Z" fill="white"/>
<path d="M430.23 67.15C430.23 67.83 430.09 68.3 429.78 68.61C429.48 68.91 428.99 69.06 428.32 69.06H420.52C419.84 69.06 419.37 68.92 419.06 68.61C418.76 68.31 418.61 67.82 418.61 67.15V53.14C418.61 52.07 418.78 50.86 419.11 49.48C419.44 48.1 419.96 46.5 420.68 44.65L425.29 32.6C425.51 31.99 425.82 31.56 426.27 31.27C426.72 30.98 427.29 30.85 428 30.85H442.27C442.95 30.85 443.49 30.99 443.94 31.27C444.39 31.56 444.7 31.99 444.92 32.6L449.53 44.65C450.24 46.49 450.75 48.09 451.1 49.48C451.43 50.86 451.6 52.07 451.6 53.14V67.15C451.6 67.83 451.46 68.3 451.15 68.61C450.84 68.92 450.36 69.06 449.69 69.06H441.68C440.97 69.06 440.46 68.92 440.11 68.61C439.78 68.31 439.61 67.82 439.61 67.15V59.73H430.21V67.15H430.2H430.23ZM433.26 42L430.77 50.07H439.1L436.61 42C436.47 41.68 436.32 41.45 436.16 41.31C436 41.17 435.81 41.09 435.6 41.09H434.27C434.05 41.09 433.87 41.16 433.71 41.31C433.55 41.45 433.41 41.68 433.26 42Z" fill="white"/>
<path d="M139.24 96.22C138.3 96.22 137.4 96.08 136.53 95.79C135.68 95.5 135 95.12 134.5 94.66L135.15 93.28C135.63 93.7 136.22 94.03 136.96 94.31C137.68 94.59 138.45 94.72 139.25 94.72C139.97 94.72 140.55 94.63 141 94.47C141.45 94.31 141.78 94.08 141.98 93.79C142.2 93.5 142.3 93.17 142.3 92.8C142.3 92.38 142.16 92.03 141.88 91.77C141.6 91.51 141.24 91.31 140.79 91.15C140.34 90.99 139.86 90.85 139.33 90.73C138.79 90.62 138.26 90.47 137.72 90.31C137.18 90.15 136.69 89.95 136.26 89.7C135.81 89.45 135.46 89.12 135.19 88.7C134.91 88.28 134.78 87.74 134.78 87.08C134.78 86.42 134.95 85.86 135.29 85.31C135.62 84.77 136.14 84.34 136.84 84.02C137.54 83.7 138.43 83.53 139.52 83.53C140.24 83.53 140.95 83.63 141.66 83.82C142.37 84.01 142.98 84.28 143.5 84.63L142.92 86.05C142.38 85.7 141.83 85.44 141.24 85.28C140.65 85.12 140.08 85.05 139.52 85.05C138.82 85.05 138.25 85.14 137.81 85.31C137.36 85.48 137.03 85.72 136.83 86.02C136.63 86.31 136.53 86.64 136.53 87.01C136.53 87.45 136.67 87.79 136.95 88.05C137.23 88.31 137.59 88.51 138.04 88.67C138.49 88.83 138.97 88.96 139.5 89.09C140.04 89.22 140.56 89.35 141.11 89.51C141.65 89.67 142.14 89.86 142.57 90.12C143.02 90.37 143.37 90.7 143.64 91.11C143.91 91.52 144.05 92.05 144.05 92.7C144.05 93.35 143.88 93.9 143.54 94.44C143.19 94.98 142.67 95.41 141.96 95.73C141.21 96.06 140.31 96.22 139.24 96.22Z" fill="white"/>
<path d="M155.74 96.2199C154.8 96.2199 153.92 96.0599 153.12 95.7399C152.32 95.4199 151.61 94.9699 151.02 94.4099C150.43 93.8299 149.96 93.1699 149.64 92.3999C149.31 91.6299 149.15 90.7899 149.15 89.8899C149.15 88.9899 149.31 88.1399 149.64 87.3799C149.97 86.6099 150.44 85.9499 151.02 85.3699C151.61 84.7899 152.31 84.3599 153.11 84.0399C153.91 83.7199 154.79 83.5599 155.75 83.5599C156.71 83.5599 157.56 83.7199 158.36 84.0199C159.16 84.3399 159.85 84.7699 160.45 85.3499C161.04 85.9299 161.51 86.5999 161.83 87.3599C162.15 88.1299 162.32 88.9699 162.32 89.8899C162.32 90.8099 162.16 91.6599 161.83 92.4199C161.51 93.1899 161.05 93.8499 160.45 94.4299C159.86 95.0099 159.16 95.4399 158.36 95.7599C157.56 96.0299 156.69 96.1899 155.75 96.1899L155.74 96.2199ZM155.74 94.6399C156.42 94.6399 157.06 94.5199 157.64 94.2899C158.22 94.0599 158.73 93.7299 159.16 93.2899C159.59 92.8599 159.93 92.3499 160.17 91.7799C160.42 91.1999 160.53 90.5799 160.53 89.8799C160.53 89.1799 160.41 88.5599 160.17 87.9799C159.93 87.3999 159.59 86.8899 159.16 86.4699C158.73 86.0399 158.22 85.6999 157.64 85.4699C157.06 85.2399 156.42 85.1199 155.74 85.1199C155.06 85.1199 154.41 85.2299 153.81 85.4699C153.23 85.6999 152.71 86.0299 152.28 86.4699C151.85 86.9099 151.5 87.4099 151.27 87.9799C151.02 88.5599 150.91 89.1799 150.91 89.8799C150.91 90.5799 151.03 91.1999 151.27 91.7799C151.52 92.3599 151.85 92.8699 152.28 93.2899C152.71 93.7299 153.22 94.0599 153.81 94.2899C154.4 94.5199 155.04 94.6399 155.74 94.6399Z" fill="white"/>
<path d="M168.55 96.0699V83.6899H173.37C174.46 83.6899 175.38 83.8599 176.15 84.1999C176.92 84.5499 177.51 85.0399 177.92 85.6899C178.33 86.3399 178.54 87.1099 178.54 88.0099C178.54 88.9099 178.34 89.6699 177.92 90.3099C177.51 90.9499 176.92 91.4399 176.15 91.7899C175.38 92.1399 174.46 92.2999 173.37 92.2999H169.52L170.32 91.4899V96.0699H168.55ZM170.32 91.6699L169.52 90.7999H173.33C174.46 90.7999 175.31 90.5499 175.91 90.0599C176.49 89.5699 176.78 88.8899 176.78 87.9999C176.78 87.1099 176.49 86.4399 175.91 85.9399C175.33 85.4599 174.46 85.2199 173.33 85.2199H169.52L170.32 84.3399V91.6699ZM176.82 96.0699L173.68 91.5799H175.58L178.77 96.0699H176.83H176.82Z" fill="white"/>
<path d="M190.07 96.22C188.45 96.22 187.16 95.76 186.23 94.83C185.3 93.9 184.84 92.54 184.84 90.75V83.71H186.61V90.68C186.61 92.06 186.91 93.07 187.52 93.71C188.13 94.35 188.98 94.67 190.1 94.67C191.22 94.67 192.08 94.35 192.69 93.71C193.3 93.07 193.6 92.06 193.6 90.68V83.71H195.32V90.75C195.32 92.55 194.86 93.91 193.93 94.83C192.99 95.76 191.7 96.22 190.06 96.22H190.07Z" fill="white"/>
<path d="M202.46 96.0699V83.6899H204.23V94.5399H210.93V96.0699H202.46Z" fill="white"/>
<path d="M214.64 96.0699L220.24 83.6899H221.99L227.61 96.0699H225.76L220.75 84.6699H221.46L216.45 96.0699H214.64ZM217.03 92.9899L217.51 91.5699H224.48L224.99 92.9899H217.04H217.03Z" fill="white"/>
<path d="M233 96.0699V83.6899H237.82C238.91 83.6899 239.83 83.8599 240.6 84.1999C241.37 84.5499 241.96 85.0399 242.37 85.6899C242.78 86.3399 242.99 87.1099 242.99 88.0099C242.99 88.9099 242.79 89.6699 242.37 90.3099C241.96 90.9499 241.37 91.4399 240.6 91.7899C239.83 92.1399 238.91 92.2999 237.82 92.2999H233.97L234.77 91.4899V96.0699H233ZM234.77 91.6699L233.97 90.7999H237.78C238.91 90.7999 239.76 90.5499 240.36 90.0599C240.94 89.5699 241.23 88.8899 241.23 87.9999C241.23 87.1099 240.94 86.4399 240.36 85.9399C239.78 85.4599 238.91 85.2199 237.78 85.2199H233.97L234.77 84.3399V91.6699ZM241.27 96.0699L238.13 91.5799H240.03L243.22 96.0699H241.28H241.27Z" fill="white"/>
<path d="M249.4 96.0699V83.6899H251.17V96.0699H249.4Z" fill="white"/>
<path d="M269.7 96.07V91.34L270.11 92.44L264.78 83.71H266.68L271.16 91.08H270.13L274.62 83.71H276.37L271.07 92.44L271.46 91.34V96.07H269.71H269.7Z" fill="white"/>
<path d="M279.08 96.0699L284.68 83.6899H286.43L292.05 96.0699H290.2L285.19 84.6699H285.9L280.89 96.0699H279.08ZM281.46 92.9899L281.94 91.5699H288.91L289.42 92.9899H281.47H281.46Z" fill="white"/>
<path d="M297.44 96.0699V83.6899H298.89L307.09 93.8599H306.32V83.6899H308.09V96.0699H306.64L298.44 85.8999H299.21V96.0699H297.44Z" fill="white"/>
<path d="M315.34 96.0699V83.6899H317.11V96.0699H315.34Z" fill="white"/>
<path d="M326.81 96.0699V85.2199H322.57V83.6899H332.81V85.2199H328.57V96.0699H326.82H326.81Z" fill="white"/>
<path d="M338.28 96.0699V83.6899H340.05V94.5399H346.75V96.0699H338.28Z" fill="white"/>
<path d="M350.44 96.0699L356.04 83.6899H357.79L363.41 96.0699H361.56L356.55 84.6699H357.26L352.25 96.0699H350.44ZM352.83 92.9899L353.31 91.5699H360.28L360.79 92.9899H352.84H352.83Z" fill="white"/>
<path d="M377.1 96.0699V83.6899H378.87V96.0699H377.1ZM378.67 93.0899L378.58 90.9299L385.6 83.6899H387.61L382.18 89.4199L381.19 90.5199L378.66 93.0799L378.67 93.0899ZM385.88 96.0699L380.8 90.1599L381.99 88.8599L387.96 96.0699H385.89H385.88Z" fill="white"/>
<path d="M390.99 96.0699L396.59 83.6899H398.34L403.96 96.0699H402.11L397.1 84.6699H397.81L392.8 96.0699H390.99ZM393.38 92.9899L393.86 91.5699H400.82L401.33 92.9899H393.38Z" fill="white"/>
<path d="M408.25 96.07V94.87L416.58 84.55L416.77 85.25H408.37V83.72H418.36V84.92L410.06 95.24L409.84 94.55H418.57V96.08H408.25V96.07Z" fill="white"/>
<path d="M422.63 96.0699L428.23 83.6899H429.98L435.6 96.0699H433.75L428.74 84.6699H429.45L424.44 96.0699H422.63ZM425.02 92.9899L425.5 91.5699H432.47L432.98 92.9899H425.03H425.02Z" fill="white"/>
<path d="M440.99 96.0699V83.6899H442.44L450.64 93.8599H449.87V83.6899H451.64V96.0699H450.19L442 85.8999H442.77V96.0699H441H440.99Z" fill="white"/>
</svg>
